<svg xmlns="http://www.w3.org/2000/svg" viewBox="0 0 100 100">
  <defs>
    <linearGradient id="bgGrad" x1="0%" y1="0%" x2="100%" y2="100%">
      <stop offset="0%" style="stop-color:#667eea;stop-opacity:1" />
      <stop offset="100%" style="stop-color:#764ba2;stop-opacity:1" />
    </linearGradient>
  </defs>
  <!-- Fondo -->
  <rect width="100" height="100" rx="20" ry="20" fill="url(#bgGrad)"/>
  <!-- Persona -->
  <circle cx="50" cy="30" r="12" fill="white"/>
  <path d="M30 55 Q30 45 50 45 Q70 45 70 55 L70 60 L30 60 Z" fill="white"/>
  <!-- Estrellas de evaluación -->
  <g fill="#FFD700">
    <polygon points="35,72 36.5,76 41,76 37.5,79 39,83 35,80 31,83 32.5,79 29,76 33.5,76"/>
    <polygon points="50,72 51.5,76 56,76 52.5,79 54,83 50,80 46,83 47.5,79 44,76 48.5,76"/>
    <polygon points="65,72 66.5,76 71,76 67.5,79 69,83 65,80 61,83 62.5,79 59,76 63.5,76"/>
  </g>
  <!-- Checkmark -->
  <circle cx="75" cy="25" r="12" fill="#4CAF50"/>
  <polyline points="69,25 73,29 81,21" stroke="white" stroke-width="3" fill="none" stroke-linecap="round" stroke-linejoin="round"/>
</svg>

